<svg width="16px" height="30px" viewBox="0 0 16 30" version="1.1" xmlns="http://www.w3.org/2000/svg" xmlns:xlink="http://www.w3.org/1999/xlink">
    <title>Facebook</title>
    <g id="Homepage" stroke="none" stroke-width="1" fill="none" fill-rule="evenodd">
        <g id="Homepage_v3---6-1" transform="translate(-789.000000, -3432.000000)" fill="#25458D">
            <g id="Group-17" transform="translate(789.123761, 3432.000000)">
                <g id="Group-14" transform="translate(0.000000, 0.165683)">
                    <path d="M14.7530342,16.5341463 L15.5711797,11.2143902 L10.4529398,11.2143902 L10.4529398,7.76243902 C10.4529398,6.30682927 11.1678693,4.88829268 13.4603888,4.88829268 L15.7873951,4.88829268 L15.7873951,0.359512195 C15.7873951,0.359512195 13.6756259,0 11.6563108,0 C7.44084365,0 4.68580904,2.54780488 4.68580904,7.16 L4.68580904,11.2143902 L0,11.2143902 L0,16.5341463 L4.68580904,16.5341463 L4.68580904,29.3941463 C5.62526997,29.5412195 6.5884559,29.6178049 7.56925214,29.6178049 C8.55029296,29.6178049 9.5132343,29.5412195 10.4529398,29.3941463 L10.4529398,16.5341463 L14.7530342,16.5341463 Z" id="Fill-12"/>
                </g>
            </g>
        </g>
    </g>
</svg>