<svg width="31px" height="30px" viewBox="0 0 31 30" version="1.1" xmlns="http://www.w3.org/2000/svg" xmlns:xlink="http://www.w3.org/1999/xlink">
    <title>Group 14</title>
    <g id="Homepage" stroke="none" stroke-width="1" fill="none" fill-rule="evenodd">
        <g id="Homepage_v3---6-1" transform="translate(-895.000000, -3432.000000)">
            <g id="Group-17" transform="translate(789.123761, 3432.000000)">
                <g id="Group-14" transform="translate(107.708522, 1.756585)">
                    <path d="M24.8427615,26.4358537 L1.66686442,26.4358537 C0.750150137,26.4358537 0,25.6878049 0,24.7734146 L0,1.66268293 C0,0.748292683 0.750150137,0 1.66686442,0 L24.8427615,0 C25.7594758,0 26.5096259,0.748292683 26.5096259,1.66268293 L26.5096259,24.7734146 C26.5096259,25.6878049 25.7594758,26.4358537 24.8427615,26.4358537 Z" id="Stroke-6" stroke="#25458D" stroke-width="3.5"/>
                    <path d="M19.4728165,13.2179512 C19.4728165,16.6425854 16.6889205,19.418439 13.2549108,19.418439 C9.82065644,19.418439 7.0367605,16.6425854 7.0367605,13.2179512 C7.0367605,9.79356098 9.82065644,7.01746341 13.2549108,7.01746341 C16.6889205,7.01746341 19.4728165,9.79356098 19.4728165,13.2179512 Z" id="Stroke-8" stroke="#25458D" stroke-width="3.5"/>
                    <path d="M22.9964187,5.47165854 C22.9964187,6.38482927 22.2540953,7.12507317 21.3383594,7.12507317 C20.4226235,7.12507317 19.6800556,6.38482927 19.6800556,5.47165854 C19.6800556,4.5584878 20.4226235,3.8182439 21.3383594,3.8182439 C22.2540953,3.8182439 22.9964187,4.5584878 22.9964187,5.47165854" id="Fill-10" fill="#25458D"/>
                </g>
            </g>
        </g>
    </g>
</svg>