<svg width="25px" height="30px" viewBox="0 0 25 30" version="1.1" xmlns="http://www.w3.org/2000/svg" xmlns:xlink="http://www.w3.org/1999/xlink">
    <title>Fill 1</title>
    <g id="Homepage" stroke="none" stroke-width="1" fill="none" fill-rule="evenodd">
        <g id="Homepage_v3---6-1" transform="translate(-952.000000, -3432.000000)" fill="#25458D">
            <g id="Group-17" transform="translate(789.123761, 3432.000000)">
                <path d="M168.586437,28.6524639 C168.578589,28.5826339 168.567061,28.4787404 168.554552,28.3531923 C168.338472,26.1721588 168.513593,24.4139986 168.650697,23.3804164 C169.209905,19.1604426 170.820573,14.2548204 170.820573,14.2548204 C170.820573,14.2548204 170.267251,13.1553012 170.267251,11.5292584 C170.267251,8.9764468 171.758718,7.07059724 173.615633,7.07059724 C175.194416,7.07059724 175.957441,8.24675922 175.957441,9.65674239 C175.957441,11.2319333 174.946451,13.5869336 174.424523,15.7691837 C173.988439,17.5966873 175.348198,19.0867196 177.165135,19.0867196 C180.454408,19.0867196 182.982373,15.6460687 182.982373,10.6798622 C182.982373,6.28421836 179.79881,3.210966 175.252544,3.210966 C169.986911,3.210966 166.896058,7.12899171 166.896058,11.1781617 C166.896058,12.756029 167.508735,14.4480088 168.273477,15.3674784 C168.424561,15.5492312 168.44688,15.7088427 168.401751,15.8940019 C168.261213,16.4740536 167.948989,17.7210189 167.887672,17.9762514 C167.806979,18.3122629 167.619595,18.3833095 167.268864,18.2217515 C164.957469,17.1543492 163.512602,13.8022632 163.512602,11.1095482 C163.512602,5.31827648 167.753756,0 175.740134,0 C182.159748,0 187.148966,4.53822367 187.148966,10.6029761 C187.148966,16.9300171 183.127326,22.022015 177.545544,22.022015 C175.670724,22.022015 173.907501,21.0555865 173.304144,19.9139746 C173.304144,19.9139746 172.3763,23.4191027 172.151145,24.2779881 C171.733456,25.8728871 170.605474,27.8716812 169.851033,29.0909091 L168.586437,28.6524639 Z" id="Fill-1"/>
            </g>
        </g>
    </g>
</svg>