<svg width="33px" height="29px" viewBox="0 0 33 29" version="1.1" xmlns="http://www.w3.org/2000/svg" xmlns:xlink="http://www.w3.org/1999/xlink">
    <title>Fill 15</title>
    <g id="Homepage" stroke="none" stroke-width="1" fill="none" fill-rule="evenodd">
        <g id="Homepage_v3---6-1" transform="translate(-835.000000, -3432.000000)" fill="#25458D">
            <g id="Group-17" transform="translate(789.123761, 3432.000000)">
                <path d="M78.0580569,4.04651185 C76.952403,4.64997181 75.6012096,5.01200022 74.3725438,5.13259707 C75.7239793,4.28794341 76.7066214,2.96042663 77.1981845,1.39171616 C75.9695188,2.11577297 74.6180833,2.71899507 73.0211083,3.08102348 C71.7926847,1.75374457 70.1957098,0.909090909 68.3527111,0.909090909 C64.7902099,0.909090909 61.8417995,3.925915 61.8417995,7.78763062 C61.8417995,8.27025587 61.8417995,8.87347797 61.9645692,9.35634109 C56.5590694,9.11490953 51.7681446,6.33951699 48.5739526,2.23636982 C47.9596197,3.20185819 47.7138381,4.40854025 47.7138381,5.73605703 C47.7138381,8.14965902 48.819492,10.2009947 50.5394788,11.4079147 C49.4338249,11.4079147 48.4509407,11.0458863 47.5910684,10.5630232 L47.5910684,10.68362 C47.5910684,13.9421135 49.8023762,16.717506 52.7507866,17.4415629 C52.2594656,17.5623976 51.6451327,17.6829944 51.031042,17.6829944 C50.6624907,17.6829944 50.1709275,17.6829944 49.8023762,17.5623976 C50.6624907,20.3377901 52.9965682,22.268529 55.8219668,22.268529 C53.6109011,24.0789089 50.7852604,25.1649941 47.83685,25.1649941 C47.345529,25.1649941 46.8539658,25.1649941 46.239875,25.0441594 C49.0652736,26.9751361 52.5052472,28.1818182 56.1905181,28.1818182 C68.1071717,28.1818182 74.6180833,17.8035913 74.6180833,8.75288112 L74.6180833,7.90822746 C76.0925306,6.7015454 77.1981845,5.49462547 78.0580569,4.04651185" id="Fill-15"/>
            </g>
        </g>
    </g>
</svg>